<svg aria-hidden="true" style="position: absolute; width: 0; height: 0; overflow: hidden;" version="1.1" xmlns="http://www.w3.org/2000/svg" xmlns:xlink="http://www.w3.org/1999/xlink">
<defs>
<symbol id="icon-loc" viewBox="0 0 32 32">
<path   d="M31.633 0.224c0.112 0.080 0.208 0.208 0.272 0.336 0.048 0.144 0.096 0.288 0.096 0.432v28.001c-0.016 0.224-0.096 0.448-0.24 0.64-0.144 0.176-0.352 0.288-0.576 0.336l-10 2c-0.128 0.032-0.256 0.032-0.384 0l-9.808-1.952-9.808 1.952c-0.144 0.032-0.288 0.032-0.432 0-0.144-0.048-0.272-0.112-0.4-0.208-0.112-0.096-0.208-0.208-0.256-0.336-0.064-0.144-0.096-0.288-0.096-0.432v-28.001c0-0.224 0.080-0.448 0.224-0.64 0.144-0.176 0.352-0.288 0.576-0.336l10-2c0.128-0.032 0.256-0.032 0.384 0l9.808 1.952 9.808-1.952c0.144-0.032 0.288-0.032 0.432 0 0.144 0.048 0.272 0.112 0.4 0.208zM20.001 3.808l-8-1.6v25.969l8 1.6v-25.969zM22.001 29.777l8-1.6v-25.969l-8 1.6v25.969zM10 28.177v-25.969l-8 1.6v25.969l8-1.6z"></path>
</symbol>
<symbol id="icon-kitchen" viewBox="0 0 32 32">
<path d="M0.99 11.99c-0.15 0-0.29 0.040-0.43 0.1-0.13 0.070-0.25 0.16-0.34 0.28-0.1 0.11-0.16 0.25-0.2 0.4-0.030 0.14-0.030 0.29 0 0.44l3.3 14.87c0.25 1.11 0.87 2.1 1.75 2.81 0.89 0.72 2 1.1 3.13 1.1h11.59c1.13 0 2.24-0.38 3.12-1.1 0.89-0.71 1.51-1.7 1.76-2.81l0.26-1.18c1.53 0.28 3.11-0.040 4.41-0.89 1.3-0.86 2.21-2.19 2.55-3.71s0.070-3.11-0.74-4.44c-0.82-1.32-2.11-2.28-3.62-2.67l0.44-1.98c0.030-0.15 0.030-0.3 0-0.44-0.040-0.15-0.1-0.29-0.2-0.4-0.090-0.12-0.21-0.21-0.34-0.28-0.14-0.060-0.29-0.1-0.44-0.1h-26.001zM25.991 24.991c-0.21 0-0.42-0.010-0.63-0.050l1.74-7.79c0.92 0.27 1.72 0.86 2.24 1.67 0.53 0.81 0.74 1.78 0.61 2.73-0.14 0.95-0.61 1.83-1.34 2.46-0.72 0.63-1.65 0.98-2.62 0.98zM5.27 27.641l-3.030-13.65h23.511l-3.040 13.65c-0.14 0.67-0.51 1.27-1.050 1.69-0.53 0.43-1.19 0.66-1.87 0.66h-11.59c-0.68 0-1.34-0.23-1.87-0.66-0.54-0.42-0.91-1.020-1.060-1.69z"></path>
<path d="M8.79 1.59v0.010l-0.030 0.040c-0.14 0.2-0.28 0.41-0.41 0.62-0.1 0.17-0.2 0.35-0.28 0.53-0.050 0.12-0.070 0.19-0.070 0.21v0.010c0.020 0.18 0.080 0.34 0.18 0.49 0.15 0.27 0.35 0.55 0.61 0.89l0.020 0.030c0.24 0.31 0.52 0.69 0.74 1.080 0.23 0.4 0.44 0.91 0.44 1.49 0 0.38-0.13 0.74-0.23 0.99-0.12 0.27-0.25 0.53-0.41 0.78-0.15 0.26-0.32 0.52-0.5 0.76l-0.040 0.050-0.010 0.020c-0.16 0.21-0.4 0.36-0.66 0.39-0.26 0.040-0.53-0.030-0.74-0.19-0.22-0.15-0.36-0.39-0.39-0.65-0.040-0.27 0.030-0.53 0.18-0.75h0.010l0.030-0.040c0.14-0.2 0.28-0.41 0.41-0.62 0.1-0.17 0.2-0.35 0.28-0.54 0.050-0.12 0.070-0.18 0.070-0.2-0.020-0.18-0.080-0.35-0.18-0.51-0.18-0.31-0.39-0.6-0.62-0.89l-0.020-0.020c-0.27-0.35-0.51-0.71-0.74-1.090-0.27-0.45-0.42-0.96-0.44-1.49 0-0.37 0.13-0.73 0.24-0.98 0.12-0.28 0.27-0.55 0.41-0.78 0.16-0.26 0.32-0.52 0.5-0.76l0.050-0.070c0.16-0.22 0.4-0.36 0.66-0.39 0.26-0.040 0.53 0.030 0.74 0.18 0.22 0.16 0.36 0.4 0.39 0.66 0.040 0.26-0.030 0.53-0.19 0.74zM14.79 1.59v0.010l-0.030 0.040c-0.14 0.2-0.28 0.41-0.41 0.62-0.1 0.17-0.2 0.35-0.28 0.53-0.050 0.12-0.070 0.19-0.070 0.21v0.010c0.020 0.18 0.080 0.34 0.18 0.49 0.15 0.27 0.35 0.55 0.61 0.89l0.020 0.030c0.24 0.31 0.52 0.69 0.74 1.080 0.23 0.4 0.44 0.91 0.44 1.49 0 0.38-0.13 0.74-0.23 0.99-0.12 0.27-0.25 0.53-0.41 0.78-0.15 0.26-0.32 0.52-0.5 0.76l-0.040 0.050-0.010 0.020c-0.16 0.21-0.4 0.36-0.66 0.39-0.26 0.040-0.53-0.030-0.74-0.19-0.22-0.15-0.36-0.39-0.39-0.65-0.040-0.27 0.030-0.53 0.18-0.75h0.010l0.030-0.040c0.14-0.2 0.28-0.41 0.41-0.62 0.1-0.17 0.2-0.35 0.28-0.54 0.050-0.12 0.070-0.18 0.070-0.2-0.020-0.18-0.080-0.35-0.18-0.51-0.18-0.31-0.39-0.6-0.62-0.89l-0.020-0.020c-0.27-0.35-0.51-0.71-0.74-1.090-0.27-0.45-0.42-0.96-0.44-1.49 0-0.37 0.13-0.73 0.24-0.98 0.12-0.28 0.27-0.55 0.41-0.78 0.16-0.26 0.32-0.52 0.5-0.76l0.050-0.070c0.16-0.22 0.4-0.36 0.66-0.39 0.26-0.040 0.53 0.030 0.74 0.18 0.22 0.16 0.36 0.4 0.39 0.66 0.040 0.26-0.030 0.53-0.19 0.74zM20.791 1.59v0.010l-0.030 0.040c-0.14 0.2-0.28 0.41-0.41 0.62-0.1 0.17-0.2 0.35-0.28 0.53-0.050 0.12-0.070 0.19-0.070 0.21v0.010c0.020 0.18 0.080 0.34 0.18 0.49 0.15 0.27 0.35 0.55 0.61 0.89l0.020 0.030c0.24 0.31 0.52 0.69 0.74 1.080 0.23 0.4 0.44 0.91 0.44 1.49 0 0.38-0.13 0.74-0.23 0.99-0.12 0.27-0.25 0.53-0.41 0.78-0.15 0.26-0.32 0.52-0.5 0.76l-0.040 0.050-0.010 0.020c-0.16 0.21-0.4 0.36-0.66 0.39-0.26 0.040-0.53-0.030-0.74-0.19-0.22-0.15-0.36-0.39-0.39-0.65-0.040-0.27 0.030-0.53 0.18-0.75h0.010l0.030-0.040c0.14-0.2 0.28-0.41 0.41-0.62 0.1-0.17 0.2-0.35 0.28-0.54 0.050-0.12 0.070-0.18 0.070-0.2-0.020-0.18-0.080-0.35-0.18-0.51-0.18-0.31-0.39-0.6-0.62-0.89l-0.020-0.020c-0.27-0.35-0.51-0.71-0.74-1.090-0.27-0.45-0.42-0.96-0.44-1.49 0-0.37 0.13-0.73 0.24-0.98 0.12-0.28 0.27-0.55 0.41-0.78 0.16-0.26 0.32-0.52 0.5-0.76l0.050-0.070c0.16-0.22 0.4-0.36 0.66-0.39 0.26-0.040 0.53 0.030 0.74 0.18 0.22 0.16 0.36 0.4 0.39 0.66 0.040 0.26-0.030 0.53-0.19 0.74z"></path>
</symbol>
<symbol id="icon-microwave" viewBox="0 0 37 32">
<path fill="transparent" stroke="black" stroke-linejoin="round" stroke-linecap="butt" stroke-miterlimit="4" stroke-width="2.5946" d="M32.433 1.297c1.907 0 3.451 1.544 3.451 3.451v19.031c0 1.907-1.544 3.464-3.451 3.464h-27.684c-1.907 0-3.451-1.557-3.451-3.464v-19.031c0-1.907 1.544-3.451 3.451-3.451h27.684z"></path>
<path stroke-linejoin="round" stroke-linecap="butt" stroke-miterlimit="4" stroke-width="2.5946" d="M20.316 8.212c0.96 0 1.738 0.778 1.738 1.725v8.653c0 0.947-0.778 1.725-1.738 1.725h-10.378c-0.947 0-1.725-0.778-1.725-1.725v-8.653c0-0.947 0.778-1.725 1.725-1.725h10.378z"></path>
<path stroke-linejoin="round" stroke-linecap="round" stroke-miterlimit="4" stroke-width="2.5946" d="M28.969 8.212v12.104M8.212 27.23v3.464M28.969 27.23v3.464"></path>
</symbol>
<symbol id="icon-gas" viewBox="0 0 32 32">
<path  fill="transparent" stroke="black" stroke-linejoin="round" stroke-linecap="round" stroke-miterlimit="4" stroke-width="2.6422" d="M7.189 1.321h17.615c4.855 0 5.868 1.002 5.868 5.868v17.615c0 4.855-1.013 5.868-5.868 5.868h-17.615c-4.866 0-5.868-1.013-5.868-5.868v-17.615c0-4.866 1.002-5.868 5.868-5.868zM7.189 26.268h5.868M24.804 26.279v-0.011"></path>
<path stroke-linejoin="round" stroke-linecap="butt" stroke-miterlimit="4" stroke-width="2.6422" d="M15.996 18.936c-3.248 0-5.868-2.631-5.868-5.879 0-3.237 2.62-5.868 5.868-5.868 3.237 0 5.868 2.631 5.868 5.868 0 3.248-2.631 5.879-5.868 5.879z"></path>
<path stroke-linejoin="round" stroke-linecap="round" stroke-miterlimit="4" stroke-width="2.6422" d="M21.138 13.057h2.202M15.996 18.198v2.202M10.855 13.057h-2.202M15.996 7.927v-2.202"></path>
</symbol>
<symbol id="icon-heart" viewBox="0 0 37 32">
<path d="M18.672 12.215l-2.101-4.17c-0.514-1.043-1.416-2.521-2.676-3.734-1.26-1.183-2.754-1.976-4.559-1.976-3.921 0-7.002 3.081-7.002 6.815 0 2.816 1.292 4.808 4.357 7.858 0.778 0.778 1.68 1.618 2.676 2.552 2.583 2.427 5.804 5.446 9.305 9.492 3.501-4.046 6.706-7.064 9.29-9.492 0.996-0.934 1.898-1.774 2.676-2.552 3.065-3.050 4.372-5.042 4.372-7.858 0-3.734-3.096-6.815-7.002-6.815-1.821 0-3.314 0.794-4.575 1.976-1.26 1.214-2.163 2.692-2.676 3.734l-2.085 4.17zM19.575 31.572c-0.109 0.124-0.249 0.233-0.405 0.311s-0.327 0.109-0.498 0.109c-0.187 0-0.358-0.031-0.514-0.109s-0.296-0.187-0.405-0.311c-3.734-4.45-7.127-7.625-9.912-10.223-4.808-4.528-7.842-7.376-7.842-12.199 0-5.057 4.17-9.149 9.336-9.149 3.719 0 6.333 2.443 7.936 4.684 0.607 0.84 1.074 1.665 1.4 2.319 0.389-0.809 0.856-1.587 1.385-2.319 1.603-2.241 4.217-4.684 7.951-4.684 5.15 0 9.336 4.092 9.336 9.149 0 4.824-3.034 7.671-7.858 12.199-2.785 2.614-6.177 5.788-9.912 10.223z"></path>
</symbol>
<symbol id="icon-water" viewBox="0 0 32 32">
<path  fill="transparent" stroke="black" stroke-linejoin="miter" stroke-linecap="butt" stroke-miterlimit="4" stroke-width="2" d="M16 29c-5.53 0-9-3.48-9-9 0-5.93 6.45-13.93 8.43-16.25 0.070-0.080 0.15-0.15 0.25-0.19 0.1-0.050 0.21-0.070 0.32-0.070 0.1 0 0.21 0.020 0.31 0.070 0.1 0.040 0.18 0.11 0.26 0.19 1.97 2.32 8.43 10.32 8.43 16.25 0 5.52-3.48 9-9 9z"></path>
<path stroke-linejoin="round" stroke-linecap="round" stroke-miterlimit="4" stroke-width="2" d="M21.5 20.5c0 1.19-0.48 2.33-1.32 3.18-0.85 0.84-1.99 1.32-3.18 1.32"></path>
</symbol>
<symbol id="logo" viewBox="0 0 272 32">
<path fill="#475467" style="fill: var(--color1, #475467)" d="M270.78 14.36h-7.22c-0.040-0.44-0.2-0.82-0.46-1.14-0.28-0.32-0.64-0.58-1.080-0.74-0.42-0.18-0.9-0.28-1.42-0.28-0.66 0-1.24 0.12-1.72 0.38-0.5 0.24-0.72 0.6-0.72 1.040 0 0.32 0.12 0.62 0.42 0.9 0.28 0.28 0.86 0.48 1.68 0.64l4.44 0.8c2.24 0.4 3.9 1.080 4.98 2.060 1.1 0.96 1.66 2.24 1.66 3.84 0 1.56-0.46 2.9-1.38 4.060-0.92 1.12-2.16 2.020-3.74 2.64s-3.38 0.92-5.38 0.92c-3.34 0-5.94-0.68-7.84-2.040-1.86-1.38-2.92-3.16-3.14-5.4h7.8c0.1 0.68 0.44 1.22 1.020 1.6 0.58 0.36 1.32 0.56 2.2 0.56 0.72 0 1.32-0.12 1.78-0.38 0.48-0.24 0.72-0.6 0.72-1.040 0-0.42-0.2-0.76-0.62-1-0.4-0.24-1.020-0.44-1.88-0.6l-3.86-0.68c-2.22-0.38-3.88-1.12-5-2.22-1.1-1.080-1.66-2.48-1.64-4.2-0.020-1.52 0.38-2.8 1.2-3.84 0.8-1.060 1.96-1.88 3.48-2.42 1.5-0.56 3.3-0.84 5.38-0.84 3.14 0 5.64 0.66 7.46 1.96s2.78 3.12 2.88 5.42z"></path>
<path fill="#475467" style="fill: var(--color1, #475467)" d="M232.82 23.92l4.1-5.24h2.2l8.88-11.42h-8.82l-5.28 7.34h-1.020l-0.060 9.32zM225.78 29.080v-29.080h7.84v29.080h-7.84zM239.24 29.080l-5-8.64 5.12-5.56 8.86 14.2h-8.98z"></path>
<path fill="#475467" style="fill: var(--color1, #475467)" d="M211.22 29.48c-2.36 0-4.38-0.48-6.080-1.4-1.68-0.96-2.96-2.28-3.86-3.96-0.9-1.7-1.36-3.66-1.36-5.9 0-2.22 0.46-4.18 1.36-5.88 0.9-1.68 2.18-3 3.86-3.94 1.7-0.94 3.72-1.42 6.080-1.42 2.14 0 4 0.38 5.56 1.16 1.58 0.78 2.8 1.86 3.66 3.28 0.86 1.4 1.3 3.040 1.3 4.94h-7.28c-0.1-1.16-0.42-2.020-0.98-2.62s-1.26-0.9-2.14-0.9c-0.68 0-1.28 0.18-1.78 0.58-0.52 0.4-0.92 0.98-1.2 1.78-0.28 0.78-0.42 1.78-0.42 2.98 0 1.18 0.14 2.18 0.42 2.98 0.28 0.78 0.68 1.38 1.2 1.78 0.5 0.38 1.1 0.58 1.78 0.58 0.58 0 1.1-0.14 1.54-0.4 0.44-0.28 0.8-0.68 1.080-1.2s0.46-1.18 0.5-1.92h7.28c-0.020 1.92-0.46 3.58-1.32 5.020-0.86 1.42-2.060 2.52-3.62 3.3s-3.42 1.16-5.58 1.16z"></path>
<path fill="#475467" style="fill: var(--color1, #475467)" d="M188.080 19.54v-12.28h7.84v21.82h-7.44v-4.14h-0.22c-0.48 1.38-1.3 2.48-2.48 3.26-1.2 0.78-2.6 1.16-4.22 1.16-1.54 0-2.86-0.34-4.020-1.040-1.12-0.7-2.020-1.68-2.64-2.9-0.64-1.24-0.96-2.64-0.96-4.24v-13.92h7.84v12.28c0.020 1.080 0.28 1.92 0.82 2.54 0.56 0.62 1.32 0.92 2.3 0.92 0.66 0 1.22-0.14 1.7-0.42s0.84-0.68 1.1-1.18c0.26-0.52 0.4-1.14 0.38-1.86z"></path>
<path fill="#475467" style="fill: var(--color1, #475467)" d="M155.8 29.080v-21.82h7.6v4.16h0.24c0.4-1.54 1.020-2.66 1.88-3.38 0.88-0.7 1.9-1.060 3.060-1.060 0.34 0 0.68 0.020 1 0.080 0.34 0.060 0.68 0.12 0.98 0.22v6.68c-0.38-0.12-0.86-0.22-1.42-0.3-0.58-0.060-1.060-0.1-1.46-0.1-0.78 0-1.46 0.18-2.080 0.54-0.6 0.34-1.080 0.82-1.44 1.44-0.34 0.62-0.52 1.34-0.52 2.18v11.36h-7.84z"></path>
<path fill="#475467" style="fill: var(--color1, #475467)" d="M128.9 6.36v-6.36h25.28v6.36h-8.76v22.72h-7.78v-22.72h-8.74z"></path>
<path fill="#101828" style="fill: var(--color2, #101828)" d="M125 0v29.080h-7.84v-29.080h7.84z"></path>
<path fill="#101828" style="fill: var(--color2, #101828)" d="M102.48 29.48c-2.32 0-4.34-0.44-6.020-1.34s-2.96-2.18-3.88-3.86c-0.9-1.68-1.34-3.7-1.34-6.060 0-2.24 0.44-4.22 1.36-5.9 0.9-1.68 2.18-3 3.84-3.94s3.62-1.4 5.88-1.4c1.64 0 3.14 0.26 4.46 0.76 1.34 0.52 2.48 1.26 3.44 2.24 0.94 0.96 1.66 2.14 2.18 3.52 0.5 1.38 0.76 2.94 0.76 4.68v1.82h-19.48v-4.32h12.26c0-0.64-0.16-1.18-0.48-1.66-0.3-0.48-0.7-0.86-1.22-1.12-0.52-0.28-1.1-0.4-1.76-0.4-0.64 0-1.22 0.12-1.74 0.4-0.54 0.26-0.96 0.64-1.28 1.1-0.32 0.48-0.48 1.040-0.5 1.68v4.66c0 0.7 0.14 1.32 0.44 1.86 0.3 0.56 0.72 0.98 1.26 1.3 0.56 0.32 1.22 0.46 2 0.46 0.54 0 1.020-0.060 1.48-0.22 0.44-0.16 0.84-0.36 1.16-0.66 0.32-0.28 0.56-0.64 0.7-1.040h7.16c-0.24 1.52-0.82 2.82-1.74 3.94s-2.14 1.98-3.66 2.58c-1.5 0.62-3.26 0.92-5.28 0.92z"></path>
<path fill="#101828" style="fill: var(--color2, #101828)" d="M89.66 7.26l-7.32 21.82h-9.1l-7.32-21.82h8.24l3.52 14.44h0.22l3.52-14.44h8.24z"></path>
<path fill="#101828" style="fill: var(--color2, #101828)" d="M50.1 29.42c-1.38 0-2.62-0.22-3.7-0.68-1.060-0.46-1.88-1.16-2.5-2.1-0.6-0.94-0.9-2.14-0.9-3.58 0-1.2 0.2-2.22 0.62-3.060 0.4-0.84 0.96-1.54 1.7-2.080 0.72-0.54 1.58-0.96 2.54-1.24 0.98-0.28 2.020-0.46 3.16-0.56 1.22-0.080 2.2-0.2 2.94-0.34s1.28-0.34 1.62-0.58c0.32-0.26 0.48-0.58 0.48-1v-0.060c0-0.58-0.2-1-0.64-1.3-0.44-0.32-1-0.46-1.68-0.46-0.74 0-1.36 0.16-1.84 0.5-0.46 0.32-0.74 0.82-0.84 1.48h-7.2c0.080-1.32 0.5-2.54 1.26-3.66s1.86-2.020 3.3-2.7c1.46-0.68 3.26-1.020 5.44-1.020 1.56 0 2.96 0.18 4.2 0.56 1.24 0.36 2.3 0.86 3.16 1.52 0.88 0.64 1.54 1.4 2 2.26s0.68 1.8 0.68 2.82v14.94h-7.32v-3.060h-0.18c-0.42 0.8-0.96 1.46-1.58 1.96s-1.32 0.88-2.12 1.1c-0.78 0.22-1.66 0.34-2.6 0.34zM52.66 24.48c0.6 0 1.16-0.12 1.68-0.38 0.52-0.24 0.96-0.6 1.28-1.060 0.34-0.46 0.5-1.020 0.5-1.68v-1.82c-0.2 0.080-0.42 0.16-0.66 0.24s-0.48 0.14-0.74 0.22c-0.26 0.060-0.54 0.12-0.82 0.18s-0.58 0.1-0.9 0.16c-0.6 0.080-1.1 0.24-1.5 0.46-0.38 0.2-0.66 0.46-0.84 0.78-0.18 0.3-0.28 0.64-0.28 1.020 0 0.6 0.22 1.080 0.64 1.4 0.44 0.32 0.98 0.48 1.64 0.48z"></path>
<path fill="#101828" style="fill: var(--color2, #101828)" d="M26.9 29.080v-21.82h7.6v4.16h0.24c0.4-1.54 1.020-2.66 1.88-3.38 0.88-0.7 1.9-1.060 3.060-1.060 0.34 0 0.68 0.020 1 0.080 0.34 0.060 0.68 0.12 0.98 0.22v6.68c-0.38-0.12-0.86-0.22-1.42-0.3-0.58-0.060-1.060-0.1-1.48-0.1-0.76 0-1.44 0.18-2.060 0.54-0.62 0.34-1.080 0.82-1.44 1.44-0.34 0.62-0.52 1.34-0.52 2.18v11.36h-7.84z"></path>
<path fill="#101828" style="fill: var(--color2, #101828)" d="M0 6.36v-6.36h25.28v6.36h-8.76v22.72h-7.78v-22.72h-8.74z"></path>
</symbol>
<symbol id="icon-refrigerator" viewBox="0 0 32 32">
<path d="M23.66 9.33c0-0.27-0.1-0.52-0.29-0.71s-0.44-0.29-0.71-0.29c-0.26 0-0.52 0.1-0.71 0.29-0.18 0.19-0.29 0.44-0.29 0.71v2.67c0 0.26 0.11 0.51 0.29 0.7 0.19 0.19 0.45 0.3 0.71 0.3 0.27 0 0.52-0.11 0.71-0.3s0.29-0.44 0.29-0.7v-2.67zM23.66 18.66c0-0.26-0.1-0.52-0.29-0.71-0.19-0.18-0.44-0.29-0.71-0.29-0.26 0-0.52 0.11-0.71 0.29-0.18 0.19-0.29 0.45-0.29 0.71v2.67c0 0.26 0.11 0.52 0.29 0.71 0.19 0.18 0.45 0.29 0.71 0.29 0.27 0 0.52-0.11 0.71-0.29 0.19-0.19 0.29-0.45 0.29-0.71v-2.67z"></path>
<path d="M16.070 1.66h-0.15c-2.45 0-4.39 0-5.91 0.21-1.56 0.21-2.83 0.65-3.83 1.65-0.99 0.99-1.44 2.26-1.65 3.82-0.2 1.52-0.2 3.46-0.2 5.91v4.15c0 2.45 0 4.4 0.2 5.91 0.21 1.57 0.66 2.83 1.65 3.83 0.62 0.61 1.33 1.020 2.15 1.28v0.91c0 0.55 0.45 1 1 1h1.33c0.27 0 0.52-0.11 0.71-0.29 0.19-0.19 0.29-0.45 0.29-0.71v-0.4c1.21 0.060 2.62 0.060 4.26 0.060h0.15c1.64 0 3.050 0 4.26-0.060v0.4c0 0.55 0.45 1 1 1h1.33c0.27 0 0.52-0.11 0.71-0.29 0.19-0.19 0.29-0.45 0.29-0.71v-0.91c0.82-0.26 1.54-0.67 2.15-1.28 0.99-1 1.44-2.26 1.65-3.83 0.2-1.52 0.2-3.46 0.2-5.91v-4.15c0-2.45 0-4.39-0.2-5.91-0.21-1.56-0.66-2.82-1.65-3.82-1-1-2.27-1.44-3.83-1.65-1.52-0.21-3.46-0.21-5.91-0.21v0zM7.6 4.93c0.56-0.56 1.33-0.9 2.68-1.080 1.37-0.19 3.17-0.19 5.72-0.19 2.54 0 4.34 0 5.72 0.19 1.34 0.18 2.11 0.52 2.67 1.080 0.57 0.56 0.91 1.34 1.090 2.68 0.18 1.37 0.18 3.18 0.18 5.72v1h-19.33v-1c0-2.54 0-4.35 0.18-5.72 0.18-1.34 0.52-2.12 1.090-2.68zM6.33 16.33h19.33v1c0 2.54 0 4.35-0.18 5.72-0.18 1.34-0.52 2.11-1.090 2.68-0.56 0.56-1.33 0.9-2.68 1.080-1.37 0.18-3.17 0.18-5.71 0.18-2.55 0-4.35 0-5.72-0.18-1.35-0.18-2.12-0.52-2.68-1.080-0.57-0.57-0.91-1.34-1.090-2.68-0.18-1.37-0.18-3.18-0.18-5.72v-1z"></path>
</symbol>
<symbol id="icon-star" viewBox="0 0 34 32">
<path  d="M15.699 0.615l-4.469 8.464c-0.165 0.331-0.473 0.544-0.828 0.615l-9.434 1.631c-0.946 0.165-1.3 1.3-0.638 1.986l6.667 6.856c0.26 0.26 0.378 0.638 0.307 0.993l-1.348 9.481c-0.142 0.946 0.827 1.631 1.679 1.229l8.582-4.232c0.331-0.166 0.733-0.166 1.064 0l8.582 4.232c0.851 0.402 1.82-0.284 1.679-1.229l-1.348-9.481c-0.071-0.355 0.047-0.733 0.307-0.993l6.667-6.856c0.662-0.686 0.307-1.821-0.638-1.986l-9.434-1.631c-0.355-0.071-0.662-0.284-0.828-0.615l-4.468-8.464c-0.449-0.828-1.655-0.828-2.104 0z"></path>
</symbol>
<symbol id="icon-tv" viewBox="0 0 32 32">
<path d="M0 8c0 0 0-4 4-4h24c0 0 4 0 4 4v12c0 0 0 4-4 4h-8c0 1.33 0.16 2.33 0.5 3h1.5c0.26 0 0.51 0.1 0.7 0.29s0.3 0.44 0.3 0.71c0 0.26-0.11 0.51-0.3 0.7s-0.44 0.3-0.7 0.3h-12c-0.27 0-0.52-0.11-0.71-0.3s-0.29-0.44-0.29-0.7c0-0.27 0.1-0.52 0.29-0.71s0.44-0.29 0.71-0.29h1.5c0.33-0.67 0.5-1.67 0.5-3h-8c0 0-4 0-4-4v-12zM2.79 6.28c-0.22 0.16-0.39 0.37-0.51 0.61-0.17 0.35-0.26 0.73-0.28 1.13v11.98c0 0.65 0.15 1 0.29 1.2 0.14 0.21 0.34 0.38 0.6 0.51 0.34 0.16 0.7 0.26 1.080 0.28l0.050 0.010h23.98c0.65 0 1-0.16 1.2-0.29 0.22-0.16 0.39-0.37 0.51-0.61 0.16-0.34 0.26-0.7 0.28-1.070l0.010-0.050v-11.98c0-0.66-0.16-1.010-0.29-1.21-0.16-0.22-0.37-0.39-0.61-0.51-0.35-0.17-0.73-0.26-1.12-0.28h-23.98c-0.65 0-1.010 0.15-1.21 0.28z"></path>
</symbol>
<symbol id="icon-ac" viewBox="0 0 37 32">
<path d="M28.571 2.286c-1.52 0-2.971 0.594-4.046 1.669s-1.669 2.526-1.669 4.046c0 0.297-0.126 0.583-0.343 0.8s-0.503 0.343-0.8 0.343c-0.309 0-0.594-0.126-0.811-0.343s-0.331-0.503-0.331-0.8c0-1.589 0.469-3.131 1.337-4.446 0.88-1.326 2.137-2.343 3.6-2.949s3.063-0.766 4.617-0.457c1.554 0.309 2.983 1.074 4.091 2.194 1.12 1.109 1.886 2.537 2.194 4.091s0.149 3.154-0.457 4.617c-0.606 1.463-1.623 2.72-2.949 3.6-1.314 0.869-2.857 1.349-4.434 1.349h-27.429c-0.309 0-0.594-0.126-0.811-0.343s-0.331-0.503-0.331-0.8c0-0.309 0.114-0.594 0.331-0.811s0.503-0.331 0.811-0.331h27.429c1.509 0 2.96-0.606 4.034-1.68s1.68-2.526 1.68-4.034c0-1.52-0.606-2.971-1.68-4.046s-2.526-1.669-4.034-1.669zM12.571 4.571c-0.617 0-1.189 0.24-1.623 0.663-0.423 0.434-0.663 1.006-0.663 1.623 0 0.297-0.126 0.583-0.343 0.8s-0.503 0.343-0.8 0.343c-0.309 0-0.594-0.126-0.811-0.343s-0.331-0.503-0.331-0.8c0-0.914 0.263-1.794 0.766-2.549s1.211-1.337 2.046-1.68c0.846-0.343 1.76-0.434 2.651-0.263 0.88 0.183 1.691 0.617 2.331 1.257s1.074 1.451 1.257 2.331c0.171 0.891 0.080 1.806-0.263 2.651-0.343 0.834-0.926 1.543-1.68 2.046s-1.634 0.777-2.537 0.777h-11.429c-0.309 0-0.594-0.126-0.811-0.343s-0.331-0.503-0.331-0.8c0-0.309 0.114-0.594 0.331-0.811s0.503-0.331 0.811-0.331h11.429c0.606 0 1.177-0.251 1.611-0.674 0.423-0.434 0.674-1.006 0.674-1.611 0-0.617-0.251-1.189-0.674-1.623-0.434-0.423-1.006-0.663-1.611-0.663zM0 19.429c0-0.309 0.114-0.594 0.331-0.811s0.503-0.331 0.811-0.331h22.949c1.36 0 2.686 0.4 3.806 1.154 1.131 0.754 2.011 1.817 2.526 3.074 0.526 1.257 0.663 2.629 0.389 3.966-0.263 1.326-0.914 2.549-1.874 3.509s-2.183 1.611-3.509 1.874c-1.326 0.263-2.709 0.126-3.966-0.389-1.246-0.526-2.32-1.394-3.074-2.526s-1.154-2.457-1.154-3.806c0-0.309 0.114-0.594 0.331-0.811s0.503-0.331 0.811-0.331c0.297 0 0.594 0.114 0.811 0.331 0.206 0.217 0.331 0.503 0.331 0.811 0 0.903 0.263 1.783 0.766 2.537s1.223 1.337 2.057 1.68c0.834 0.343 1.749 0.434 2.64 0.263 0.891-0.183 1.703-0.617 2.343-1.257s1.074-1.451 1.246-2.331c0.183-0.891 0.091-1.806-0.263-2.651-0.343-0.834-0.926-1.543-1.68-2.046s-1.634-0.766-2.537-0.766h-22.949c-0.309 0-0.594-0.126-0.811-0.343s-0.331-0.503-0.331-0.8z"></path>
</symbol>
<symbol id="icon-automatic" viewBox="0 0 43 32">
<path d="M16 4c0-1.067 0.413-2.080 1.16-2.84 0.76-0.747 1.773-1.16 2.84-1.16h2.667c1.053 0 2.067 0.413 2.827 1.16 0.747 0.76 1.173 1.773 1.173 2.84v2.667c0 1.053-0.427 2.067-1.173 2.827-0.76 0.747-1.773 1.173-2.827 1.173v2.667h14.667c0.347 0 0.68 0.133 0.933 0.387s0.4 0.587 0.4 0.947v2.667c0 0.347-0.147 0.68-0.4 0.933s-0.587 0.4-0.933 0.4c-0.36 0-0.693-0.147-0.947-0.4s-0.387-0.587-0.387-0.933v-1.333h-13.333v1.333c0 0.347-0.147 0.68-0.4 0.933s-0.587 0.4-0.933 0.4c-0.36 0-0.693-0.147-0.947-0.4s-0.387-0.587-0.387-0.933v-1.333h-13.333v1.333c0 0.347-0.147 0.68-0.4 0.933s-0.587 0.4-0.933 0.4c-0.36 0-0.693-0.147-0.947-0.4s-0.387-0.587-0.387-0.933v-2.667c0-0.36 0.133-0.693 0.387-0.947s0.587-0.387 0.947-0.387h14.667v-2.667c-1.067 0-2.080-0.427-2.84-1.173-0.747-0.76-1.16-1.773-1.16-2.827v-2.667zM22.667 8c0.347 0 0.68-0.147 0.933-0.4s0.4-0.587 0.4-0.933v-2.667c0-0.36-0.147-0.693-0.4-0.947s-0.587-0.387-0.933-0.387h-2.667c-0.36 0-0.693 0.133-0.947 0.387s-0.387 0.587-0.387 0.947v2.667c0 0.347 0.133 0.68 0.387 0.933s0.587 0.4 0.947 0.4h2.667zM0 25.333c0-1.067 0.413-2.080 1.16-2.84 0.76-0.747 1.773-1.16 2.84-1.16h2.667c1.053 0 2.067 0.413 2.827 1.16 0.747 0.76 1.173 1.773 1.173 2.84v2.667c0 1.053-0.427 2.067-1.173 2.827-0.76 0.747-1.773 1.173-2.827 1.173h-2.667c-1.067 0-2.080-0.427-2.84-1.173-0.747-0.76-1.16-1.773-1.16-2.827v-2.667zM4 24c-0.36 0-0.693 0.133-0.947 0.387s-0.387 0.587-0.387 0.947v2.667c0 0.347 0.133 0.68 0.387 0.933s0.587 0.4 0.947 0.4h2.667c0.347 0 0.68-0.147 0.933-0.4s0.4-0.587 0.4-0.933v-2.667c0-0.36-0.147-0.693-0.4-0.947s-0.587-0.387-0.933-0.387h-2.667zM16 25.333c0-1.067 0.413-2.080 1.16-2.84 0.76-0.747 1.773-1.16 2.84-1.16h2.667c1.053 0 2.067 0.413 2.827 1.16 0.747 0.76 1.173 1.773 1.173 2.84v2.667c0 1.053-0.427 2.067-1.173 2.827-0.76 0.747-1.773 1.173-2.827 1.173h-2.667c-1.067 0-2.080-0.427-2.84-1.173-0.747-0.76-1.16-1.773-1.16-2.827v-2.667zM20 24c-0.36 0-0.693 0.133-0.947 0.387s-0.387 0.587-0.387 0.947v2.667c0 0.347 0.133 0.68 0.387 0.933s0.587 0.4 0.947 0.4h2.667c0.347 0 0.68-0.147 0.933-0.4s0.4-0.587 0.4-0.933v-2.667c0-0.36-0.147-0.693-0.4-0.947s-0.587-0.387-0.933-0.387h-2.667zM32 25.333c0-1.067 0.413-2.080 1.16-2.84 0.76-0.747 1.773-1.16 2.84-1.16h2.667c1.053 0 2.067 0.413 2.827 1.16 0.747 0.76 1.173 1.773 1.173 2.84v2.667c0 1.053-0.427 2.067-1.173 2.827-0.76 0.747-1.773 1.173-2.827 1.173h-2.667c-1.067 0-2.080-0.427-2.84-1.173-0.747-0.76-1.16-1.773-1.16-2.827v-2.667zM36 24c-0.36 0-0.693 0.133-0.947 0.387s-0.387 0.587-0.387 0.947v2.667c0 0.347 0.133 0.68 0.387 0.933s0.587 0.4 0.947 0.4h2.667c0.347 0 0.68-0.147 0.933-0.4s0.4-0.587 0.4-0.933v-2.667c0-0.36-0.147-0.693-0.4-0.947s-0.587-0.387-0.933-0.387h-2.667z"></path>
</symbol>
<symbol id="icon-bathroom" viewBox="0 0 37 32">
<path d="M8.296 30.222c0 0.344-0.107 0.687-0.308 0.984-0.19 0.296-0.474 0.521-0.794 0.652-0.332 0.13-0.687 0.166-1.031 0.107-0.344-0.071-0.664-0.237-0.913-0.486s-0.415-0.569-0.486-0.913c-0.059-0.344-0.024-0.699 0.107-1.031 0.13-0.32 0.356-0.604 0.652-0.794 0.296-0.201 0.64-0.296 0.996-0.296 0.462 0 0.913 0.178 1.256 0.51 0.332 0.344 0.521 0.794 0.521 1.268zM11.259 23.704c-0.356 0-0.699 0.095-0.996 0.296-0.296 0.19-0.521 0.474-0.652 0.794-0.13 0.332-0.166 0.687-0.107 1.031 0.071 0.344 0.237 0.664 0.486 0.913s0.569 0.415 0.913 0.486c0.344 0.059 0.699 0.024 1.031-0.107 0.32-0.13 0.604-0.356 0.794-0.652 0.201-0.296 0.308-0.64 0.308-0.984 0-0.474-0.19-0.924-0.521-1.268-0.344-0.332-0.794-0.51-1.256-0.51zM1.778 23.704c-0.356 0-0.699 0.095-0.996 0.296-0.296 0.19-0.521 0.474-0.652 0.794-0.13 0.332-0.166 0.687-0.107 1.031 0.071 0.344 0.237 0.664 0.486 0.913s0.569 0.415 0.913 0.486c0.344 0.059 0.699 0.024 1.031-0.107 0.32-0.13 0.604-0.356 0.794-0.652 0.201-0.296 0.308-0.64 0.308-0.984 0-0.474-0.19-0.924-0.521-1.268-0.344-0.332-0.794-0.51-1.256-0.51zM6.519 18.963c-0.356 0-0.699 0.095-0.996 0.296-0.296 0.19-0.521 0.474-0.652 0.794-0.13 0.332-0.166 0.687-0.107 1.031 0.071 0.344 0.237 0.664 0.486 0.913s0.569 0.415 0.913 0.486c0.344 0.059 0.699 0.024 1.031-0.107 0.32-0.13 0.604-0.356 0.794-0.652 0.201-0.296 0.308-0.64 0.308-0.984 0-0.474-0.19-0.924-0.521-1.268-0.344-0.332-0.794-0.51-1.256-0.51zM36.741 1.185c0 0.308-0.13 0.604-0.356 0.83s-0.521 0.356-0.83 0.356h-4.255l-4.124 4.124-3.212 18.785c-0.071 0.427-0.261 0.83-0.545 1.15-0.284 0.332-0.652 0.581-1.067 0.711s-0.865 0.142-1.28 0.047c-0.427-0.107-0.818-0.32-1.126-0.628l-14.519-14.519c-0.308-0.308-0.521-0.699-0.628-1.114-0.095-0.427-0.083-0.877 0.047-1.292 0.142-0.415 0.379-0.782 0.711-1.067s0.735-0.474 1.161-0.545l18.773-3.212 4.48-4.468c0.107-0.119 0.237-0.201 0.379-0.261s0.296-0.095 0.462-0.083h4.741c0.308 0 0.604 0.119 0.83 0.344s0.356 0.521 0.356 0.841zM24.616 7.372l-17.505 2.999 14.519 14.519 2.987-17.517z"></path>
</symbol>
<symbol id="icon-van" viewBox="0 0 32 32">
<path d="M12 2h-10v28h10v-28zM30 2h-10v10h10v-10zM30 20v10h-10v-10h10zM0 2c0-0.54 0.21-1.040 0.58-1.42 0.38-0.37 0.88-0.58 1.42-0.58h10c0.53 0 1.030 0.21 1.41 0.58 0.37 0.38 0.59 0.88 0.59 1.42v28c0 0.53-0.22 1.030-0.59 1.41-0.38 0.37-0.88 0.59-1.41 0.59h-10c-0.54 0-1.040-0.22-1.42-0.59-0.37-0.38-0.58-0.88-0.58-1.41v-28zM18 2c0-0.54 0.21-1.040 0.58-1.42 0.38-0.37 0.88-0.58 1.42-0.58h10c0.53 0 1.030 0.21 1.41 0.58 0.37 0.38 0.59 0.88 0.59 1.42v10c0 0.53-0.22 1.030-0.59 1.41-0.38 0.37-0.88 0.59-1.41 0.59h-10c-0.54 0-1.040-0.22-1.42-0.59-0.37-0.38-0.58-0.88-0.58-1.41v-10zM20 18c-0.54 0-1.040 0.21-1.42 0.58-0.37 0.38-0.58 0.88-0.58 1.42v10c0 0.53 0.21 1.030 0.58 1.41 0.38 0.37 0.88 0.59 1.42 0.59h10c0.53 0 1.030-0.22 1.41-0.59 0.37-0.38 0.59-0.88 0.59-1.41v-10c0-0.54-0.22-1.040-0.59-1.42-0.38-0.37-0.88-0.58-1.41-0.58h-10z"></path>
</symbol>
<symbol id="icon-integrated" viewBox="0 0 32 32">
<path d="M0 3.429c0-0.914 0.354-1.783 0.994-2.434 0.651-0.64 1.52-0.994 2.434-0.994h6.857c0.903 0 1.771 0.354 2.423 0.994 0.64 0.651 1.006 1.52 1.006 2.434v6.857c0 0.903-0.366 1.771-1.006 2.423-0.651 0.64-1.52 1.006-2.423 1.006h-6.857c-0.914 0-1.783-0.366-2.434-1.006-0.64-0.651-0.994-1.52-0.994-2.423v-6.857zM3.429 2.286c-0.309 0-0.594 0.114-0.811 0.331s-0.331 0.503-0.331 0.811v6.857c0 0.297 0.114 0.583 0.331 0.8s0.503 0.343 0.811 0.343h6.857c0.297 0 0.583-0.126 0.8-0.343s0.343-0.503 0.343-0.8v-6.857c0-0.309-0.126-0.594-0.343-0.811s-0.503-0.331-0.8-0.331h-6.857zM18.286 3.429c0-0.914 0.354-1.783 0.994-2.434 0.651-0.64 1.52-0.994 2.434-0.994h6.857c0.903 0 1.771 0.354 2.423 0.994 0.64 0.651 1.006 1.52 1.006 2.434v6.857c0 0.903-0.366 1.771-1.006 2.423-0.651 0.64-1.52 1.006-2.423 1.006h-6.857c-0.914 0-1.783-0.366-2.434-1.006-0.64-0.651-0.994-1.52-0.994-2.423v-6.857zM21.714 2.286c-0.309 0-0.594 0.114-0.811 0.331s-0.331 0.503-0.331 0.811v6.857c0 0.297 0.114 0.583 0.331 0.8s0.503 0.343 0.811 0.343h6.857c0.297 0 0.583-0.126 0.8-0.343s0.343-0.503 0.343-0.8v-6.857c0-0.309-0.126-0.594-0.343-0.811s-0.503-0.331-0.8-0.331h-6.857zM0 21.714c0-0.914 0.354-1.783 0.994-2.434 0.651-0.64 1.52-0.994 2.434-0.994h6.857c0.903 0 1.771 0.354 2.423 0.994 0.64 0.651 1.006 1.52 1.006 2.434v6.857c0 0.903-0.366 1.771-1.006 2.423-0.651 0.64-1.52 1.006-2.423 1.006h-6.857c-0.914 0-1.783-0.366-2.434-1.006-0.64-0.651-0.994-1.52-0.994-2.423v-6.857zM3.429 20.571c-0.309 0-0.594 0.114-0.811 0.331s-0.331 0.503-0.331 0.811v6.857c0 0.297 0.114 0.583 0.331 0.8s0.503 0.343 0.811 0.343h6.857c0.297 0 0.583-0.126 0.8-0.343s0.343-0.503 0.343-0.8v-6.857c0-0.309-0.126-0.594-0.343-0.811s-0.503-0.331-0.8-0.331h-6.857zM18.286 21.714c0-0.914 0.354-1.783 0.994-2.434 0.651-0.64 1.52-0.994 2.434-0.994h6.857c0.903 0 1.771 0.354 2.423 0.994 0.64 0.651 1.006 1.52 1.006 2.434v6.857c0 0.903-0.366 1.771-1.006 2.423-0.651 0.64-1.52 1.006-2.423 1.006h-6.857c-0.914 0-1.783-0.366-2.434-1.006-0.64-0.651-0.994-1.52-0.994-2.423v-6.857zM21.714 20.571c-0.309 0-0.594 0.114-0.811 0.331s-0.331 0.503-0.331 0.811v6.857c0 0.297 0.114 0.583 0.331 0.8s0.503 0.343 0.811 0.343h6.857c0.297 0 0.583-0.126 0.8-0.343s0.343-0.503 0.343-0.8v-6.857c0-0.309-0.126-0.594-0.343-0.811s-0.503-0.331-0.8-0.331h-6.857z"></path>
</symbol>
<symbol id="icon-alcove" viewBox="0 0 32 32">
<path d="M6.857 2.286v4.571h-4.571v-4.571h4.571zM9.143 29.714v-4.571c0-0.617-0.251-1.189-0.674-1.623-0.434-0.423-1.006-0.663-1.611-0.663h-4.571c-0.617 0-1.189 0.24-1.623 0.663-0.423 0.434-0.663 1.006-0.663 1.623v4.571c0 0.606 0.24 1.177 0.663 1.611 0.434 0.423 1.006 0.674 1.623 0.674h4.571c0.606 0 1.177-0.251 1.611-0.674 0.423-0.434 0.674-1.006 0.674-1.611zM9.143 18.286v-4.571c0-0.617-0.251-1.189-0.674-1.623-0.434-0.423-1.006-0.663-1.611-0.663h-4.571c-0.617 0-1.189 0.24-1.623 0.663-0.423 0.434-0.663 1.006-0.663 1.623v4.571c0 0.606 0.24 1.177 0.663 1.611 0.434 0.423 1.006 0.674 1.623 0.674h4.571c0.606 0 1.177-0.251 1.611-0.674 0.423-0.434 0.674-1.006 0.674-1.611zM9.143 6.857v-4.571c0-0.617-0.251-1.189-0.674-1.623-0.434-0.423-1.006-0.663-1.611-0.663h-4.571c-0.617 0-1.189 0.24-1.623 0.663-0.423 0.434-0.663 1.006-0.663 1.623v4.571c0 0.606 0.24 1.177 0.663 1.611 0.434 0.423 1.006 0.674 1.623 0.674h4.571c0.606 0 1.177-0.251 1.611-0.674 0.423-0.434 0.674-1.006 0.674-1.611zM20.571 29.714v-4.571c0-0.617-0.251-1.189-0.674-1.623-0.434-0.423-1.006-0.663-1.611-0.663h-4.571c-0.617 0-1.189 0.24-1.623 0.663-0.423 0.434-0.663 1.006-0.663 1.623v4.571c0 0.606 0.24 1.177 0.663 1.611 0.434 0.423 1.006 0.674 1.623 0.674h4.571c0.606 0 1.177-0.251 1.611-0.674 0.423-0.434 0.674-1.006 0.674-1.611zM20.571 18.286v-4.571c0-0.617-0.251-1.189-0.674-1.623-0.434-0.423-1.006-0.663-1.611-0.663h-4.571c-0.617 0-1.189 0.24-1.623 0.663-0.423 0.434-0.663 1.006-0.663 1.623v4.571c0 0.606 0.24 1.177 0.663 1.611 0.434 0.423 1.006 0.674 1.623 0.674h4.571c0.606 0 1.177-0.251 1.611-0.674 0.423-0.434 0.674-1.006 0.674-1.611zM20.571 6.857v-4.571c0-0.617-0.251-1.189-0.674-1.623-0.434-0.423-1.006-0.663-1.611-0.663h-4.571c-0.617 0-1.189 0.24-1.623 0.663-0.423 0.434-0.663 1.006-0.663 1.623v4.571c0 0.606 0.24 1.177 0.663 1.611 0.434 0.423 1.006 0.674 1.623 0.674h4.571c0.606 0 1.177-0.251 1.611-0.674 0.423-0.434 0.674-1.006 0.674-1.611zM18.286 2.286v4.571h-4.571v-4.571h4.571zM29.714 2.286v4.571h-4.571v-4.571h4.571zM6.857 13.714v4.571h-4.571v-4.571h4.571zM18.286 13.714v4.571h-4.571v-4.571h4.571zM29.714 13.714h-4.571v4.571h4.571v-4.571zM6.857 25.143v4.571h-4.571v-4.571h4.571zM18.286 25.143v4.571h-4.571v-4.571h4.571zM29.714 25.143v4.571h-4.571v-4.571h4.571zM25.143 0c-0.617 0-1.189 0.24-1.623 0.663-0.423 0.434-0.663 1.006-0.663 1.623v4.571c0 0.606 0.24 1.177 0.663 1.611 0.434 0.423 1.006 0.674 1.623 0.674h4.571c0.606 0 1.177-0.251 1.611-0.674 0.423-0.434 0.674-1.006 0.674-1.611v-4.571c0-0.617-0.251-1.189-0.674-1.623-0.434-0.423-1.006-0.663-1.611-0.663h-4.571zM22.857 13.714c0-0.617 0.24-1.189 0.663-1.623 0.434-0.423 1.006-0.663 1.623-0.663h4.571c0.606 0 1.177 0.24 1.611 0.663 0.423 0.434 0.674 1.006 0.674 1.623v4.571c0 0.606-0.251 1.177-0.674 1.611-0.434 0.423-1.006 0.674-1.611 0.674h-4.571c-0.617 0-1.189-0.251-1.623-0.674-0.423-0.434-0.663-1.006-0.663-1.611v-4.571zM25.143 22.857c-0.617 0-1.189 0.24-1.623 0.663-0.423 0.434-0.663 1.006-0.663 1.623v4.571c0 0.606 0.24 1.177 0.663 1.611 0.434 0.423 1.006 0.674 1.623 0.674h4.571c0.606 0 1.177-0.251 1.611-0.674 0.423-0.434 0.674-1.006 0.674-1.611v-4.571c0-0.617-0.251-1.189-0.674-1.623-0.434-0.423-1.006-0.663-1.611-0.663h-4.571z"></path>
</symbol>

<symbol id="icon-petrol" viewBox="0 0 32 32">
<path d="M6 4.992c0-0.272 0.096-0.512 0.288-0.704s0.432-0.288 0.704-0.288h10c0.272 0 0.512 0.096 0.704 0.288s0.304 0.432 0.304 0.704v10c0 0.272-0.112 0.512-0.304 0.704s-0.432 0.304-0.704 0.304h-10c-0.272 0-0.512-0.112-0.704-0.304s-0.288-0.432-0.288-0.704v-10z"></path>
<path d="M2 4c0-1.072 0.416-2.080 1.168-2.832s1.76-1.168 2.832-1.168h12c1.056 0 2.064 0.416 2.816 1.168s1.184 1.76 1.184 2.832v16c1.056 0 2.064 0.416 2.816 1.168s1.184 1.76 1.184 2.832v0.992c0 0.272 0.096 0.512 0.288 0.704s0.432 0.304 0.704 0.304c0.272 0 0.512-0.112 0.704-0.304s0.304-0.432 0.304-0.704v-8.992h-1.008c-0.272 0-0.512-0.112-0.704-0.304s-0.288-0.432-0.288-0.704v-6.256c0-0.256 0.096-0.512 0.288-0.704s0.432-0.288 0.704-0.288h2.992c-0.016-0.96-0.112-1.792-0.4-2.448-0.16-0.384-0.432-0.704-0.784-0.912-0.368-0.224-0.928-0.384-1.808-0.384-0.272 0-0.512-0.112-0.704-0.304s-0.288-0.432-0.288-0.704c0-0.272 0.096-0.512 0.288-0.704s0.432-0.288 0.704-0.288c1.136-0.016 2.064 0.208 2.832 0.656 0.752 0.464 1.264 1.104 1.584 1.824 0.592 1.312 0.592 2.928 0.592 4.16v6.352c0 0.128-0.032 0.256-0.080 0.384-0.048 0.112-0.128 0.224-0.224 0.32s-0.192 0.176-0.32 0.224c-0.128 0.048-0.256 0.080-0.384 0.080h-0.992v8.992c0 0.8-0.32 1.552-0.88 2.128-0.576 0.56-1.328 0.88-2.128 0.88s-1.552-0.32-2.128-0.88c-0.56-0.576-0.864-1.328-0.864-2.128v-0.992c0-0.544-0.224-1.040-0.592-1.424-0.384-0.368-0.88-0.576-1.408-0.576v8h0.992c0.272 0 0.512 0.096 0.704 0.288s0.304 0.432 0.304 0.704c0 0.272-0.112 0.512-0.304 0.704s-0.432 0.304-0.704 0.304h-22c-0.272 0-0.512-0.112-0.704-0.304s-0.288-0.432-0.288-0.704c0-0.272 0.096-0.512 0.288-0.704s0.432-0.288 0.704-0.288h1.008v-26zM20 4c0-0.544-0.224-1.040-0.592-1.424-0.384-0.368-0.88-0.576-1.408-0.576h-12c-0.544 0-1.040 0.208-1.424 0.576-0.368 0.384-0.576 0.88-0.576 1.424v26h16v-26z"></path>
</symbol>
<symbol id="icon-radio" viewBox="0 0 34 32">
<path d="M16 3.419c0-0.311 0.11-0.585 0.329-0.805s0.494-0.329 0.805-0.329h16c0.311 0 0.585 0.11 0.805 0.329s0.347 0.494 0.347 0.805v2.286c0 0.311-0.128 0.585-0.347 0.805s-0.494 0.347-0.805 0.347h-16c-0.311 0-0.585-0.128-0.805-0.347s-0.329-0.494-0.329-0.805v-2.286zM0 25.143c0-1.829 0.713-3.566 1.993-4.864 1.298-1.28 3.035-1.993 4.864-1.993 1.81 0 3.547 0.713 4.846 1.993 1.28 1.298 2.011 3.035 2.011 4.864 0 1.81-0.731 3.547-2.011 4.846-1.298 1.28-3.035 2.011-4.846 2.011-1.829 0-3.566-0.731-4.864-2.011-1.28-1.298-1.993-3.035-1.993-4.846zM16 21.705c0-0.311 0.11-0.585 0.329-0.805s0.494-0.329 0.805-0.329h16c0.311 0 0.585 0.11 0.805 0.329s0.347 0.494 0.347 0.805v2.286c0 0.311-0.128 0.585-0.347 0.805s-0.494 0.347-0.805 0.347h-16c-0.311 0-0.585-0.128-0.805-0.347s-0.329-0.494-0.329-0.805v-2.286zM16 10.277c0-0.311 0.11-0.585 0.329-0.805s0.494-0.329 0.805-0.329h11.429c0.311 0 0.585 0.11 0.805 0.329s0.347 0.494 0.347 0.805c0 0.311-0.128 0.585-0.347 0.805s-0.494 0.347-0.805 0.347h-11.429c-0.311 0-0.585-0.128-0.805-0.347s-0.329-0.494-0.329-0.805zM16 28.562c0-0.311 0.11-0.585 0.329-0.805s0.494-0.329 0.805-0.329h11.429c0.311 0 0.585 0.11 0.805 0.329s0.347 0.494 0.347 0.805c0 0.311-0.128 0.585-0.347 0.805s-0.494 0.347-0.805 0.347h-11.429c-0.311 0-0.585-0.128-0.805-0.347s-0.329-0.494-0.329-0.805zM6.857 0c-0.914 0-1.81 0.165-2.633 0.512-0.841 0.347-1.591 0.859-2.231 1.481-0.622 0.64-1.134 1.39-1.481 2.231-0.347 0.823-0.512 1.719-0.512 2.633 0 0.896 0.165 1.792 0.512 2.615 0.347 0.841 0.859 1.591 1.481 2.231 0.64 0.622 1.39 1.134 2.231 1.481 0.823 0.347 1.719 0.53 2.633 0.53 1.81 0 3.547-0.731 4.846-2.011 1.28-1.298 2.011-3.035 2.011-4.846 0-1.829-0.731-3.566-2.011-4.864-1.298-1.28-3.035-1.993-4.846-1.993zM6.857 10.277c-0.914 0-1.792-0.366-2.432-1.006s-1.006-1.518-1.006-2.414c0-0.914 0.366-1.792 1.006-2.432s1.518-1.006 2.432-1.006c0.896 0 1.774 0.366 2.414 1.006s1.006 1.518 1.006 2.432c0 0.896-0.366 1.774-1.006 2.414s-1.518 1.006-2.414 1.006z"></path>
</symbol>
</defs>
</svg>
